<svg width="32" height="16" viewBox="0 0 32 16" fill="none" xmlns="http://www.w3.org/2000/svg">
<path d="M0.999977 1.99995H31C31.552 1.99995 32 1.55192 32 0.999977C32 0.447954 31.552 0 31 0H0.999977C0.447953 0 0 0.448037 0 0.999977C0 1.55192 0.448036 1.99995 0.999977 1.99995Z" fill="#EF2936"/>
<path d="M31 7H0.999977C0.447953 7 0 7.44804 0 7.99998C0 8.55192 0.448036 8.99995 0.999977 8.99995H31C31.552 8.99995 32 8.55192 32 7.99998C32 7.44804 31.552 7 31 7Z" fill="#EF2936"/>
<path d="M31 14H11C10.448 14 10 14.448 10 15C10 15.552 10.448 16 11 16H31C31.552 16 32 15.5519 32 15C32.0001 14.448 31.552 14 31 14Z" fill="#EF2936"/>
</svg>
