<svg width="24" height="25" viewBox="0 0 24 25" fill="none" xmlns="http://www.w3.org/2000/svg">
<path d="M2.11757 23.2957L23.2938 2.11949C23.6834 1.72983 23.6834 1.09738 23.2938 0.707781C22.9041 0.318123 22.2717 0.318181 21.8821 0.707781L0.705856 21.884C0.316198 22.2736 0.316257 22.9061 0.705856 23.2957C1.09546 23.6853 1.72797 23.6853 2.11757 23.2957Z" fill="#EF2936"/>
<path d="M23.2942 21.8821L2.11797 0.705856C1.72831 0.316198 1.09585 0.316256 0.706253 0.705856C0.316654 1.09546 0.316654 1.72797 0.706254 2.11757L21.8825 23.2938C22.2721 23.6834 22.9046 23.6834 23.2942 23.2938C23.6838 22.9042 23.6838 22.2717 23.2942 21.8821Z" fill="#EF2936"/>
</svg>
