<svg width="150" height="66" viewBox="0 0 150 66" fill="none" xmlns="http://www.w3.org/2000/svg">
<path fill-rule="evenodd" clip-rule="evenodd" d="M130.423 49.1062L124.862 34.1323L119.414 49.1062H130.423ZM145.426 65.0666H136.558L133.035 55.898H116.905L113.58 65.0666H104.937L120.39 25.3964L130.91 28.8207L145.426 65.0666ZM71.4481 65.0666V24.7195H101.358V31.5489H79.5926V40.492H99.846V47.2838H79.5926V58.2653H102.129V65.0666H71.4481ZM38.8604 31.5489V58.2653H44.9384C47.2117 58.2653 48.8555 58.1432 49.8701 57.8802C51.1853 57.5514 52.2844 56.9972 53.158 56.2081C54.0316 55.419 54.7362 54.1133 55.2904 52.3096C55.8352 50.5059 56.1171 48.0354 56.1171 44.9165C56.1171 41.7977 55.8352 39.4117 55.2904 37.7396C54.7362 36.0674 53.9659 34.7617 52.9795 33.8317C51.9838 32.8923 50.725 32.2629 49.2032 31.9341C48.0665 31.671 45.8402 31.5489 42.5146 31.5489H38.8604ZM31.6893 24.7195H45.6052C48.9589 24.7195 51.5141 24.9732 53.2801 25.4899C55.6474 26.185 57.6765 27.425 59.358 29.2099C61.049 30.9853 62.3359 33.1647 63.219 35.7386C64.0926 38.3219 64.5341 41.4972 64.5341 45.283C64.5341 48.599 64.1208 51.4642 63.2941 53.869C62.2889 56.7998 60.8516 59.1766 58.9729 60.9896C57.5638 62.3705 55.6568 63.4414 53.252 64.2117C51.4577 64.7848 49.0529 65.0666 46.0374 65.0666H30.7158V25.0363L31.6893 24.7195Z" fill="#1E1E1E"/>
<path fill-rule="evenodd" clip-rule="evenodd" d="M14.8311 65.0666V49.3339V48.0474V35.7223V22.5522V19.5838L22.9756 16.9329V17.7316V20.2747V33.4448V48.0474V49.3339V65.0666H14.8311Z" fill="#EF2936"/>
<path fill-rule="evenodd" clip-rule="evenodd" d="M75 7.32374L29.2499 22.2145V14.8908L75 0L150 24.411V31.7348L75 7.32374ZM8.55661 28.9498L0 31.7348V24.411L8.55661 21.626V28.9498Z" fill="#1E1E1E"/>
<path fill-rule="evenodd" clip-rule="evenodd" d="M18.9034 4.53418C19.4783 4.53418 20.0474 4.6474 20.5785 4.86737C21.1095 5.08734 21.5921 5.40976 21.9985 5.81621C22.405 6.22266 22.7274 6.70519 22.9474 7.23625C23.1673 7.76731 23.2805 8.33649 23.2805 8.9113C23.2805 9.777 23.0238 10.6233 22.5428 11.3431C22.0619 12.0629 21.3783 12.6239 20.5785 12.9552C19.7786 13.2865 18.8986 13.3731 18.0495 13.2042C17.2004 13.0353 16.4205 12.6185 15.8084 12.0063C15.1962 11.3942 14.7794 10.6142 14.6105 9.76517C14.4416 8.9161 14.5283 8.03602 14.8596 7.23621C15.1909 6.43641 15.7519 5.75281 16.4717 5.27185C17.1915 4.79089 18.0377 4.53418 18.9034 4.53418Z" fill="#EF2936"/>
</svg>
